<svg xmlns="http://www.w3.org/2000/svg" width="128" height="128" viewBox="0 0 16 16"><g fill="none"><path fill="url(#IconifyId19a6699fed5fec1674279)" d="M11.5 8A1.5 1.5 0 0 1 13 9.5v.5c0 1.971-1.86 4-5 4s-5-2.029-5-4v-.5A1.5 1.5 0 0 1 4.5 8z"/><path fill="url(#IconifyId19a6699fed5fec1674280)" d="M11.5 8A1.5 1.5 0 0 1 13 9.5v.5c0 1.971-1.86 4-5 4s-5-2.029-5-4v-.5A1.5 1.5 0 0 1 4.5 8z"/><path fill="url(#IconifyId19a6699fed5fec1674281)" d="M8 1.5A2.75 2.75 0 1 1 8 7a2.75 2.75 0 0 1 0-5.5"/><defs><linearGradient id="IconifyId19a6699fed5fec1674279" x1="5.378" x2="7.616" y1="8.798" y2="14.754" gradientUnits="userSpaceOnUse"><stop offset=".125" stop-color="#9C6CFE"/><stop offset="1" stop-color="#7A41DC"/></linearGradient><linearGradient id="IconifyId19a6699fed5fec1674280" x1="8" x2="11.164" y1="7.286" y2="17.139" gradientUnits="userSpaceOnUse"><stop stop-color="#885EDB" stop-opacity="0"/><stop offset="1" stop-color="#E362F8"/></linearGradient><linearGradient id="IconifyId19a6699fed5fec1674281" x1="6.558" x2="9.361" y1="2.231" y2="6.707" gradientUnits="userSpaceOnUse"><stop offset=".125" stop-color="#9C6CFE"/><stop offset="1" stop-color="#7A41DC"/></linearGradient></defs></g></svg>