<svg xmlns="http://www.w3.org/2000/svg" width="128" height="128" viewBox="0 0 16 16"><g fill="none"><path fill="url(#IconifyId19a6699fed5fec1674264)" d="M7.698 5a.75.75 0 0 1 .75.75V7.5h1.25a.75.75 0 0 1 0 1.5h-2a.75.75 0 0 1-.75-.75v-2.5a.75.75 0 0 1 .75-.75"/><path fill="url(#IconifyId19a6699fed5fec1674265)" d="M7.947 3.5a4.5 4.5 0 1 1-4.454 5.14a.75.75 0 1 0-1.485.212a6.001 6.001 0 1 0 1.94-5.324V2.75a.75.75 0 1 0-1.5 0v3c0 .414.335.75.75.75h2.5a.75.75 0 1 0 0-1.5H4.592a4.5 4.5 0 0 1 3.354-1.5"/><defs><linearGradient id="IconifyId19a6699fed5fec1674264" x1="6.357" x2="14.586" y1="12.633" y2="8.988" gradientUnits="userSpaceOnUse"><stop stop-color="#D373FC"/><stop offset="1" stop-color="#6D37CD"/></linearGradient><linearGradient id="IconifyId19a6699fed5fec1674265" x1="2" x2="5.234" y1="2.706" y2="16.186" gradientUnits="userSpaceOnUse"><stop stop-color="#0FAFFF"/><stop offset="1" stop-color="#0067BF"/></linearGradient></defs></g></svg>