<svg xmlns="http://www.w3.org/2000/svg" width="128" height="128" viewBox="0 0 16 16"><g fill="none"><path fill="url(#IconifyId19a6699fed5fec1674283)" d="M9.905 2.815a.75.75 0 0 1 .38.99l-4 9a.75.75 0 1 1-1.37-.61l4-9a.75.75 0 0 1 .99-.38M4.498 5.189a.75.75 0 0 1 .063 1.06l-1.558 1.75l1.558 1.753a.75.75 0 1 1-1.122.996l-2-2.25a.75.75 0 0 1 0-.996l2-2.25a.75.75 0 0 1 1.06-.063m7.004 0a.75.75 0 0 1 1.059.063l2 2.25a.75.75 0 0 1 0 .996l-2 2.25a.75.75 0 0 1-1.122-.996L12.996 8L11.44 6.248a.75.75 0 0 1 .063-1.059"/><defs><linearGradient id="IconifyId19a6699fed5fec1674283" x1="1.647" x2="13.497" y1="2.05" y2="15.098" gradientUnits="userSpaceOnUse"><stop stop-color="#C76EFB"/><stop offset="1" stop-color="#8B52F4"/></linearGradient></defs></g></svg>