<svg xmlns="http://www.w3.org/2000/svg" width="128" height="128" viewBox="0 0 16 16"><g fill="none"><path fill="url(#IconifyId19a6699fed5fec1674270)" d="M5 5.5A1.5 1.5 0 0 1 6.5 4h5A1.5 1.5 0 0 1 13 5.5v5a1.5 1.5 0 0 1-1.5 1.5h-5A1.5 1.5 0 0 1 5 10.5z"/><path fill="url(#IconifyId19a6699fed5fec1674271)" d="M5 5.5A1.5 1.5 0 0 1 6.5 4h5A1.5 1.5 0 0 1 13 5.5v5a1.5 1.5 0 0 1-1.5 1.5h-5A1.5 1.5 0 0 1 5 10.5z"/><path fill="url(#IconifyId19a6699fed5fec1674273)" d="M3 3.5A1.5 1.5 0 0 1 4.5 2h5A1.5 1.5 0 0 1 11 3.5v7A1.5 1.5 0 0 1 9.5 12h-5A1.5 1.5 0 0 1 3 10.5z"/><path fill="url(#IconifyId19a6699fed5fec1674272)" d="M3.5 5A1.5 1.5 0 0 0 2 6.5V12a2 2 0 0 0 2 2h8a2 2 0 0 0 2-2v-.5a1.5 1.5 0 0 0-1.5-1.5h-1.586a.5.5 0 0 1-.353-.146L6.146 5.439A1.5 1.5 0 0 0 5.086 5z"/><defs><linearGradient id="IconifyId19a6699fed5fec1674270" x1="14.2" x2="15.247" y1="13.539" y2="5.069" gradientUnits="userSpaceOnUse"><stop stop-color="#BB45EA"/><stop offset="1" stop-color="#9C6CFE"/></linearGradient><linearGradient id="IconifyId19a6699fed5fec1674271" x1="13" x2="11" y1="6.769" y2="6.769" gradientUnits="userSpaceOnUse"><stop offset=".338" stop-color="#5750E2" stop-opacity="0"/><stop offset="1" stop-color="#5750E2"/></linearGradient><linearGradient id="IconifyId19a6699fed5fec1674272" x1="4.571" x2="4.571" y1="5" y2="17.273" gradientUnits="userSpaceOnUse"><stop offset=".241" stop-color="#FFD638"/><stop offset=".637" stop-color="#FAB500"/><stop offset=".985" stop-color="#CA6407"/></linearGradient><radialGradient id="IconifyId19a6699fed5fec1674273" cx="0" cy="0" r="1" gradientTransform="matrix(5.2 -7.66667 11.90405 8.07405 5.4 10)" gradientUnits="userSpaceOnUse"><stop offset=".228" stop-color="#2764E7"/><stop offset=".685" stop-color="#5CD1FF"/><stop offset="1" stop-color="#6CE0FF"/></radialGradient></defs></g></svg>